<?xml version="1.0" encoding="UTF-8" standalone="no"?><!DOCTYPE svg PUBLIC "-//W3C//DTD SVG 1.1//EN" "http://www.w3.org/Graphics/SVG/1.1/DTD/svg11.dtd"><svg width="238px" height="65px" version="1.1" xmlns="http://www.w3.org/2000/svg" xmlns:xlink="http://www.w3.org/1999/xlink" xml:space="preserve" xmlns:serif="http://www.serif.com/" style="fill-rule:evenodd;clip-rule:evenodd;stroke-linejoin:round;stroke-miterlimit:1.41421;"><path d="M1.52,18.354C1.777,17.961 2.281,17.813 2.71,18.004C4.306,18.731 7.401,20.434 10.214,23.215C8.821,24.772 8.043,32.354 8.756,33.668C7.201,33.685 5.862,33.256 5.352,33.212C1.385,27.934 1.297,20.799 1.52,18.354Z" style="fill:#ff9dac;"/><path d="M13.694,18.324C13.878,18.054 14.184,17.892 14.511,17.892C14.839,17.892 15.145,18.053 15.329,18.324C16.654,20.408 19.127,25.01 19.127,30.347C19.127,35.683 16.654,40.285 15.328,42.369C15.144,42.639 14.838,42.801 14.511,42.801C14.184,42.801 13.877,42.64 13.693,42.369C12.368,40.285 9.896,35.683 9.896,30.347C9.896,25.01 12.368,20.408 13.694,18.324Z" style="fill:#79a37f;"/><path d="M0,34.527C0,34.527 4.359,33.908 9.133,35.254C8.767,35.816 10.382,39.395 11.873,42.253C12.94,44.297 13.934,45.601 14.11,45.911C14.13,46.279 14,46.735 13.774,46.764C13.541,46.794 11.059,46.306 9.133,45.046C2.558,40.745 -0.017,34.027 0,34.527Z" style="fill:#0e312b;"/><path d="M236.534,18.359C236.277,17.964 235.771,17.815 235.342,18.008C233.75,18.737 230.673,20.438 227.876,23.215C229.263,24.772 230.037,32.354 229.328,33.668C230.877,33.685 232.21,33.256 232.718,33.212C236.666,27.937 236.756,20.808 236.534,18.359Z" style="fill:#ff9dac;"/><path d="M224.415,18.332C224.231,18.06 223.924,17.898 223.596,17.898C223.268,17.898 222.962,18.06 222.777,18.332C221.456,20.419 219,25.016 219,30.347C219,35.677 221.456,40.274 222.778,42.361C222.962,42.633 223.269,42.795 223.597,42.795C223.925,42.795 224.231,42.633 224.415,42.361C225.736,40.274 228.193,35.677 228.193,30.347C228.193,25.016 225.736,20.419 224.415,18.332Z" style="fill:#79a37f;"/><path d="M238.048,34.527C238.048,34.527 233.706,33.908 228.953,35.254C229.317,35.816 227.708,39.395 226.223,42.253C225.161,44.297 224.171,45.601 223.996,45.911C223.976,46.279 224.105,46.735 224.33,46.764C224.562,46.794 227.034,46.306 228.953,45.046C235.5,40.745 238.065,34.027 238.048,34.527Z" style="fill:#0e312b;"/><path d="M76.482,9.072C75.454,9.537 74.484,10.063 73.57,10.652C71.933,11.767 70.714,12.325 69.915,12.325C69.306,12.325 68.754,12.123 68.259,11.721C67.726,11.287 67.459,10.807 67.459,10.28C67.459,9.134 69.306,7.43 72.999,5.168C78.672,1.699 84.915,-0.036 91.73,-0.036C97.023,-0.036 101.23,1.374 104.352,4.193C107.169,6.733 108.578,9.8 108.578,13.393C108.578,19.342 105.874,26.327 100.468,34.351C94.148,43.738 85.924,51.514 75.797,57.678C68.297,62.263 61.634,64.556 55.809,64.556C53.525,64.556 51.792,63.998 50.612,62.883C49.66,61.954 49.184,60.962 49.184,59.909C49.184,58.329 50.441,54.766 52.954,49.221C56.761,40.919 61.482,32.26 67.117,23.245C67.954,21.882 71.076,17.157 76.482,9.072ZM81.851,6.934C82.993,7.399 83.564,7.91 83.564,8.468C83.564,8.871 82.841,10.141 81.394,12.278C74.274,22.656 68.259,32.601 63.347,42.111C58.893,50.662 56.666,55.913 56.666,57.864C56.666,59.103 57.389,59.723 58.836,59.723C61.272,59.723 64.547,58.654 68.658,56.517C73.798,53.883 79.452,49.469 85.62,43.273C91.217,37.697 95.633,31.764 98.869,25.475C101.382,20.643 102.638,16.352 102.638,12.604C102.638,9.939 101.839,7.949 100.24,6.632C98.641,5.316 96.242,4.657 93.044,4.657C89.808,4.657 86.077,5.416 81.851,6.934Z" style="fill-rule:nonzero;"/><path d="M117.144,50.708C115.888,52.505 114.65,54.023 113.432,55.262C111.033,57.678 108.654,58.887 106.293,58.887C104.237,58.887 102.638,58.097 101.496,56.517C100.773,55.494 100.411,54.286 100.411,52.892C100.411,49.453 101.744,45.658 104.409,41.507C107.378,36.891 110.957,33.344 115.145,30.866C117.886,29.255 120.532,28.449 123.083,28.449C124.682,28.449 126.015,28.852 127.081,29.658C127.995,30.37 128.452,31.176 128.452,32.074C128.452,32.756 128.128,33.7 127.481,34.909C128.052,35.559 128.337,36.132 128.337,36.628C128.337,37.279 127.804,38.347 126.738,39.834C125.634,41.352 124.53,43.366 123.426,45.875C122.246,48.539 121.656,50.677 121.656,52.288C121.656,53.589 122.131,54.658 123.083,55.494C123.35,55.711 124.13,56.067 125.425,56.563C126.377,56.935 126.852,57.585 126.852,58.515C126.852,59.103 126.586,59.584 126.053,59.955C125.482,60.358 124.816,60.559 124.054,60.559C121.998,60.559 120.228,59.816 118.743,58.329C117.525,57.121 116.916,55.603 116.916,53.775C116.916,53.155 116.992,52.133 117.144,50.708ZM124.283,35.42C123.826,34.738 123.331,34.235 122.798,33.91C122.265,33.584 121.694,33.422 121.084,33.422C118.191,33.422 115.05,35.482 111.662,39.602C107.93,44.156 106.065,48.013 106.065,51.173C106.065,51.947 106.246,52.536 106.607,52.939C106.969,53.341 107.512,53.543 108.235,53.543C110.062,53.543 112.195,51.963 114.631,48.803C116.002,47.068 117.696,44.512 119.714,41.135C121.046,38.936 122.017,37.48 122.626,36.767C122.931,36.396 123.483,35.946 124.283,35.42Z" style="fill-rule:nonzero;"/><path d="M141.187,42.437C141.682,42.065 142.158,41.693 142.615,41.321C150.572,35.002 155.902,31.842 158.605,31.842C160.09,31.842 160.832,32.508 160.832,33.84C160.832,34.769 160.166,35.869 158.833,37.139C151.562,44.048 147.926,50.135 147.926,55.401C147.926,57.105 148.497,58.732 149.639,60.281C150.172,60.993 150.438,61.551 150.438,61.954C150.438,62.325 150.21,62.682 149.753,63.022C149.258,63.456 148.668,63.673 147.983,63.673C146.422,63.673 145.108,62.867 144.042,61.256C143.014,59.739 142.5,57.895 142.5,55.727C142.5,51.544 144.442,46.913 148.325,41.832C143.148,44.528 138.331,49.298 133.877,56.145C132.735,57.787 131.516,58.608 130.222,58.608C129.575,58.608 129.042,58.422 128.623,58.05C128.09,57.616 127.823,57.059 127.823,56.377C127.823,54.704 130.165,50.321 134.848,43.227C137.361,39.385 139.34,36.597 140.787,34.862C142.234,33.158 143.471,32.306 144.499,32.306C144.994,32.306 145.47,32.492 145.927,32.864C146.46,33.298 146.726,33.793 146.726,34.351C146.726,35.033 146.174,36.008 145.07,37.279C143.471,39.168 142.177,40.888 141.187,42.437Z" style="fill-rule:nonzero;"/><path d="M177.508,50.708C176.252,52.505 175.014,54.023 173.796,55.262C171.397,57.678 169.018,58.887 166.657,58.887C164.601,58.887 163.002,58.097 161.86,56.517C161.137,55.494 160.775,54.286 160.775,52.892C160.775,49.453 162.108,45.658 164.773,41.507C167.742,36.891 171.321,33.344 175.509,30.866C178.251,29.255 180.897,28.449 183.447,28.449C185.046,28.449 186.379,28.852 187.445,29.658C188.359,30.37 188.816,31.176 188.816,32.074C188.816,32.756 188.492,33.7 187.845,34.909C188.416,35.559 188.701,36.132 188.701,36.628C188.701,37.279 188.168,38.347 187.102,39.834C185.998,41.352 184.894,43.366 183.79,45.875C182.61,48.539 182.02,50.677 182.02,52.288C182.02,53.589 182.496,54.658 183.447,55.494C183.714,55.711 184.494,56.067 185.789,56.563C186.741,56.935 187.217,57.585 187.217,58.515C187.217,59.103 186.95,59.584 186.417,59.955C185.846,60.358 185.18,60.559 184.418,60.559C182.362,60.559 180.592,59.816 179.107,58.329C177.889,57.121 177.28,55.603 177.28,53.775C177.28,53.155 177.356,52.133 177.508,50.708ZM184.647,35.42C184.19,34.738 183.695,34.235 183.162,33.91C182.629,33.584 182.058,33.422 181.449,33.422C178.555,33.422 175.414,35.482 172.026,39.602C168.295,44.156 166.429,48.013 166.429,51.173C166.429,51.947 166.61,52.536 166.971,52.939C167.333,53.341 167.876,53.543 168.599,53.543C170.427,53.543 172.559,51.963 174.995,48.803C176.366,47.068 178.06,44.512 180.078,41.135C181.411,38.936 182.381,37.48 182.991,36.767C183.295,36.396 183.847,35.946 184.647,35.42Z" style="fill-rule:nonzero;"/></svg>